# xmcd
#
# Track frame offsets:
#	150
#	17266
#	32192
#	45971
#	62462
#	78625
#	93285
#	107844
#	119891
#	137043
#	152612
#	178538
#	198882
#	211351
#	225799
#	248863
#	270306
#	288583
#	306977
#	320156
#
# Disc length: 4428 seconds
#
# Revision: 4
# Processed by: cddbd v1.5.1PL2 Copyright (c) Steve Scherf et al.
# Submitted via: audiograbber 1.83.01
#
DISCID=0d114a14
DTITLE=d - Rumba 20 vuotta
DYEAR=1900
DGENRE=
TTITLE0=Musta Paraati - Johtaja
TTITLE1=Smack - Criminal
TTITLE2=Juliet Jonesin Syd‰n - Helppo el‰m‰
TTITLE3=Melrose - Gang War
TTITLE4=Nights of Iguana - Bad Drinker
TTITLE5=Hearthill - Love Rain on Me
TTITLE6=22-Pistepirkko - Frankenstein
TTITLE7=Poverty Stinks - Paranoid
TTITLE8=Ne Luum‰et - Onnellinen perhe
TTITLE9=CMX - Ainomieli
TTITLE10=Ismo Alanko - Pornografiaa
TTITLE11=Waltari - So Fine!
TTITLE12=Don Huonot - Seireeni
TTITLE13=Apulanta - Anna mulle piiskaa
TTITLE14=Egotrippi - Unihiekkaa
TTITLE15=Tehosekoitin - Pakko p‰‰st‰ pois
TTITLE16=Giant Robot - Helsinki Rock City
TTITLE17=Kotiteollisuus - Jos sanon
TTITLE18=The Flaming Sideburns - Up in Flames
TTITLE19=Sweatmaster - I Am a Demon and I Love Rock'n'Roll
EXTD=
EXTT0=
EXTT1=
EXTT2=
EXTT3=
EXTT4=
EXTT5=
EXTT6=
EXTT7=
EXTT8=
EXTT9=
EXTT10=
EXTT11=
EXTT12=
EXTT13=
EXTT14=
EXTT15=
EXTT16=
EXTT17=
EXTT18=
EXTT19=
PLAYORDER=
